# xmcd
#
# Track frame offsets: 
#        179
#        23660
#        34123
#        54337
#        79647
#        100597
#        118631
#        137233
#        163055
#        183991
#        203434
#        224480
#        242864
#        270630
#        296741
#        312926
#
# Disc length: 4523 seconds
#
# Revision: 3
# Processed by: cddbd v1.5.2PL0 Copyright (c) Steve Scherf et al.
# Submitted via: ExactAudioCopyFreeDBPlugin 1.0
#
DISCID=de11a910
DTITLE=Spin Doctors - Pocket Full Of Kryptonite ~ CD2
DYEAR=1991
DGENRE=Alternative
TTITLE0=Jimmy Olsen's Blues (Can't Say No Demo 1989)
TTITLE1=Can't Say No (Can't Say No Demo 1989)
TTITLE2=Hard To Exist (Can't Say No Demo 1989)
TTITLE3=At This Hour (Can't Say No Demo 1989)
TTITLE4=40 Of 50 (Can't Say No Demo 1989)
TTITLE5=Big Fat Funky Booty (Can't Say No Demo 1989)
TTITLE6=What Time Is It (Piece Of Glass Demo 1990)
TTITLE7=How Could You Want Him (Piece Of Glass Demo 1990)
TTITLE8=Hungry Hamed's (Piece Of Glass Demo 1990)
TTITLE9=House (Piece Of Glass Demo 1990)
TTITLE10=Two Princes (Piece Of Glass Demo 1990)
TTITLE11=Refrigerator Car (Piece Of Glass Demo 1990)
TTITLE12=Rosetta Stone (Piece Of Glass Demo 1990)
TTITLE13=Freeway Of The Plains (Piece Of Glass Demo 1990)
TTITLE14=Turn It Upside Down (Live July 19, 1993, Kingswood Music Thea
TTITLE14=ter, Toronto, Canada)
TTITLE15=Little Miss Can't Be Wrong (Live September 25, 1990, Continen
TTITLE15=tal Divide, New York City)
EXTD=
EXTT0=
EXTT1=
EXTT2=
EXTT3=
EXTT4=
EXTT5=
EXTT6=
EXTT7=
EXTT8=
EXTT9=
EXTT10=
EXTT11=
EXTT12=
EXTT13=
EXTT14=
EXTT15=
PLAYORDER=
